<svg fill="none" height="45" viewBox="0 0 42 45" width="42" xmlns="http://www.w3.org/2000/svg"><path d="m30.3333.00000023c1.1774-.00037258 2.3114.44428177 3.1746 1.24482977.8633.80054 1.3921 1.89781 1.4804 3.07184l.0117.35v11.66663h3.5c.8701.0001 1.7089.3242 2.353.9091.644.585 1.0471 1.3889 1.1307 2.2549l.0163.336v17.5c.0001 1.7855-.6821 3.5036-1.907 4.8026-1.2249 1.2991-2.8999 2.081-4.6823 2.1858l-.4107.0116h-30.33333c-1.17735.0004-2.31133-.4443-3.17462-1.2448-.863285-.8005-1.392082-1.8978-1.4803828-3.0718l-.01166697-.35v-35.00003c-.00037258-1.17735.44428177-2.31133 1.24482977-3.17462.80054-.863285 1.89781-1.392082 3.07184-1.4803828l.35-.01166697zm7 20.99999977h-2.3333v18.6667c.6188 0 1.2123-.2459 1.6499-.6835.4376-.4375.6834-1.031.6834-1.6499zm-7-16.33333h-25.66663v35.00003h25.66663zm-11.6666 18.66663c.5947.0007 1.1667.2284 1.5992.6367.4324.4082.6926.9662.7275 1.5599s-.1583 1.1783-.54 1.6344c-.3817.456-.9232.7491-1.5137.8194l-.273.0163h-7c-.5948-.0007-1.1668-.2284-1.5992-.6366-.43248-.4083-.69271-.9663-.72757-1.56-.03485-.5937.15831-1.1783.54002-1.6343.38175-.4561.92315-.7492 1.51375-.8194l.273-.0164zm4.6666-11.6666c.6189 0 1.2124.2458 1.6499.6834.4376.4376.6835 1.0311.6835 1.6499s-.2459 1.2123-.6835 1.6499c-.4375.4376-1.031.6834-1.6499.6834h-11.6666c-.6189 0-1.2124-.2458-1.6499-.6834-.43763-.4376-.68347-1.0311-.68347-1.6499s.24584-1.2123.68347-1.6499c.4375-.4376 1.031-.6834 1.6499-.6834z" fill="#fafafa"/></svg>